<?xml version="1.0" encoding="utf-8"?>
<!-- Generator: Adobe Illustrator 20.0.0, SVG Export Plug-In . SVG Version: 6.00 Build 0)  -->
<svg version="1.1" id="Layer_1" xmlns="http://www.w3.org/2000/svg" xmlns:xlink="http://www.w3.org/1999/xlink" x="0px" y="0px"
	 viewBox="0 0 50 50" style="enable-background:new 0 0 50 50;" xml:space="preserve">
<style type="text/css">
	.st0{fill:#FFFFFF;}
</style>
<g>
	<path class="st0" d="M13,33.1c0,0,2.5,6.8,12,6.8s12-6.8,12-6.8s10,2.8,12.4,8.6c0,0,1.3,4.2-0.5,5.8c0,0-1,1.1-5.6,1.2H4.5
		c0,0-2.9-0.2-4.2-2.4c0,0-1.5-4.4,2.9-8.2C3.2,38.2,6.9,34.6,13,33.1z"/>
	<path class="st0" d="M35.2,5.2c0,0-3-3.8-10.2-4c-7.2,0.1-10.2,4-10.2,4c-4.8,4.4-3.7,11.6-3.7,11.6c1.1,6.4,4.4,12,4.4,12
		c4.2,7,9.6,7.1,9.6,7.1s5.3-0.1,9.6-7.1c0,0,3.3-5.6,4.4-12C38.9,16.8,40,9.6,35.2,5.2z"/>
</g>
</svg>
