<svg xmlns="http://www.w3.org/2000/svg" viewBox="0 0 448 448" width="512" height="512"><g fill="#FFF"><path d="M310.66 185.477a160.409 160.409 0 0 1 39.756 36.436 7.988 7.988 0 0 0 6.323 3.091 8.002 8.002 0 0 0 6.311-12.91 176.395 176.395 0 0 0-43.713-40.059 8.001 8.001 0 0 0-11.06 2.382 8.001 8.001 0 0 0 2.383 11.06zm-43.805-19.675a159.207 159.207 0 0 1 18.091 6.214 8.002 8.002 0 0 0 6.099-14.793 175.348 175.348 0 0 0-19.915-6.839c-4.259-1.176-8.666 1.314-9.847 5.571a8.002 8.002 0 0 0 5.572 9.847z"/><path d="M432 344H256v-16h168a8 8 0 0 0 8-8c0-112.011-89.003-203.611-200-207.831V96c0-.456-.047-.9-.12-1.335C241.253 91.396 248 82.474 248 72c0-13.233-10.767-24-24-24-13.234 0-24 10.767-24 24 0 10.474 6.747 19.396 16.12 22.665-.073.435-.12.879-.12 1.335v16.169C105.003 116.389 16 207.989 16 320a8 8 0 0 0 8 8h168v16H16c-8.822 0-16 7.178-16 16v24c0 8.822 7.178 16 16 16h416c8.822 0 16-7.178 16-16v-24c0-8.822-7.178-16-16-16zM224 64c4.411 0 8 3.589 8 8s-3.589 8-8 8-8-3.589-8-8 3.589-8 8-8zm0 64c103.188 0 187.611 81.828 191.821 184H32.179C36.389 209.828 120.812 128 224 128zm-16 200h32v16h-32v-16zM16 384v-24h416l.002 24H16z"/></g></svg>