<svg id="Layer_1" xmlns="http://www.w3.org/2000/svg" viewBox="0 0 595.3 595.3"><style>.st0{fill:#caa673}</style><g id="XMLID_27_"><g id="XMLID_328_"><path class="st0" d="M297.6 194.6zm56.7 56.6L326 223l-11.4-11.4-14.1 14.8-2.9 3-2.8-3-14.1-14.8-8.6 8.6 28.5 28.4 2.8 2.8h50.9z"/><path class="st0" d="M311.8 208.8l-14.2-14.2-14.1 14.2 14.1 14.9zM241 194.6v29.1l14.1-14.9zm28.3 28.4l-11.4-11.4-14.1 14.8-2.8 3v22h56.8zm85 .7v-29.1l-14.1 14.2zm-2.8 2.7l-14.1-14.8-8.6 8.6 25.5 25.4v-16.2z"/></g><g id="XMLID_284_"><path id="XMLID_326_" class="st0" d="M212.5 400.4v-8.8h-8.4v8.8h-3.8v-19.6h3.8v8.6h8.4v-8.6h3.8v19.6h-3.8z"/><path id="XMLID_322_" class="st0" d="M241.9 390.5c0 1.5-.2 2.9-.6 4.2-.4 1.2-1 2.3-1.8 3.2-.8.9-1.8 1.6-2.9 2-1.2.5-2.5.7-4.1.7-1.6 0-3-.2-4.1-.7-1.1-.5-2.1-1.2-2.8-2.1-.7-.9-1.3-2-1.6-3.2-.3-1.2-.5-2.6-.5-4.2 0-1.5.2-2.9.5-4.1.4-1.2.9-2.3 1.6-3.1.7-.9 1.7-1.5 2.8-2 1.1-.5 2.5-.7 4.1-.7s2.9.2 4.1.7c1.2.5 2.1 1.1 2.9 2 .8.9 1.4 1.9 1.8 3.1.4 1.3.6 2.7.6 4.2zm-4 0c0-1.2-.1-2.3-.3-3.2-.2-.9-.5-1.8-1-2.4-.4-.7-1-1.2-1.7-1.5-.7-.3-1.5-.5-2.4-.5-.8 0-1.6.1-2.3.3-.7.2-1.3.4-1.7.8-.4.3-.7 1-.9 2.1-.2 1.1-.3 2.6-.3 4.5 0 1.2.1 2.2.3 3.2.2 1 .5 1.8.8 2.5.4.7.9 1.2 1.6 1.6.7.4 1.5.6 2.5.6s1.8-.1 2.5-.3c.7-.2 1.2-.4 1.7-.7.2-.1.4-.4.6-.9.2-.4.3-.9.4-1.6.1-.6.2-1.3.2-2.1-.1-.8 0-1.6 0-2.4z"/><path id="XMLID_320_" class="st0" d="M252.8 400.4v-17.5l-5.7-.1.2-2h15.1l-.2 1.9-5.6.1v17.5h-3.8z"/><path id="XMLID_318_" class="st0" d="M279.3 400.4H268v-19.6h10.8l-.2 2-6.8.1v6.4l6.4.1-.2 1.8-6.3.1v7l7.6.1v2z"/><path id="XMLID_316_" class="st0" d="M285.8 400.4v-19.6h3.8v17.6h7.1l-.2 2h-10.7z"/><path id="XMLID_302_" class="st0" d="M310 395.1c0-1.3.3-2.4 1-3.2.7-.9 1.6-1.7 2.9-2.4-.4-.7-.7-1.4-1-2.1-.2-.7-.3-1.4-.3-2.2 0-.7.1-1.3.3-1.8.2-.6.6-1 1-1.4.4-.4.9-.7 1.5-1 .6-.2 1.3-.4 2-.4.8 0 1.5.1 2.1.3.6.2 1.1.4 1.4.8.4.3.6.7.8 1.1.2.4.3.9.3 1.4 0 .6-.1 1.1-.3 1.6-.2.5-.5.9-.9 1.3s-.8.8-1.3 1.2c-.5.4-1.1.7-1.7 1.1.6.8 1.3 1.7 2.1 2.6.8.9 1.6 1.8 2.4 2.6.4-.7.6-1.4.8-2.2.1-.8.2-1.5.2-2.3 0-.2 0-.4-.1-.7 0-.3-.1-.5-.1-.6l2.9-.5c.1.2.2.4.2.7 0 .3.1.6.1.8 0 1.1-.2 2.1-.7 3.2-.4 1-1.1 2-1.9 3 .9.8 1.8 1.5 2.6 2s1.6.8 2.3.8h.4v1.3c-.5.1-.9.3-1.4.4-.5.1-1.1.1-1.9.1-.7 0-1.4-.2-2.2-.6-.8-.4-1.5-.9-2.3-1.6-.9.7-1.9 1.2-2.9 1.6-1 .4-2 .6-3 .6-.9 0-1.7-.1-2.4-.4-.7-.3-1.3-.7-1.7-1.2-.5-.5-.8-1.1-1.1-1.7.1-.8-.1-1.5-.1-2.2zm7.1 3c1.1 0 2.1-.3 3.1-1-.9-.9-1.8-1.8-2.6-2.9-.8-1-1.6-2-2.3-2.9-.5.5-.8 1-1 1.6-.2.5-.3 1.1-.3 1.8 0 .5.1 1 .2 1.4.2.4.4.8.7 1.1.3.3.6.5 1 .7.3.1.7.2 1.2.2zm-1.3-13.2c0 .5.1 1 .3 1.5.2.5.5 1 .8 1.5.5-.3.8-.5 1.1-.7.3-.2.6-.5.8-.8.2-.3.3-.5.4-.8.1-.3.1-.6.1-1 0-.7-.1-1.3-.4-1.6-.3-.4-.7-.6-1.2-.6-.2 0-.5 0-.7.1-.2.1-.4.2-.6.4-.2.2-.3.5-.4.8-.1.3-.2.7-.2 1.2z"/><path id="XMLID_300_" class="st0" d="M354 394.6c0 .7-.2 1.4-.5 2.1-.3.7-.8 1.4-1.5 1.9-.6.6-1.4 1-2.3 1.4-.9.4-1.9.5-3 .5-.6 0-1.1 0-1.7-.1-.5-.1-1-.2-1.4-.3-.4-.1-.9-.3-1.3-.4l-1.2-.6.9-2.9c.3.2.6.4 1.1.6.4.2.9.4 1.5.6.5.2 1.1.3 1.6.5.5.1 1 .2 1.5.2s.9 0 1.2-.1l.9-.3c.3-.1.5-.4.7-.9.2-.5.3-1 .3-1.8 0-.7-.2-1.2-.7-1.6-.4-.4-1-.7-1.6-1l-2.1-.9c-.8-.3-1.5-.7-2.1-1.1-.7-.5-1.2-1.1-1.6-1.8-.4-.7-.7-1.7-.7-2.9 0-.6.1-1.2.4-1.8.3-.6.7-1.2 1.3-1.7.6-.5 1.3-1 2.1-1.3.8-.3 1.8-.5 2.9-.5.9 0 1.7 0 2.5.1s1.5.2 2.3.3l-.6 2.9c-.3-.1-.7-.2-1.2-.4-.4-.1-.9-.2-1.3-.3-.4-.1-.9-.2-1.3-.2s-.8-.1-1.1-.1c-.4 0-.7 0-1 .1-.3 0-.6.1-.9.3-.2.1-.4.4-.5.7-.1.3-.2.8-.2 1.2 0 .5.1.9.4 1.2.3.3.6.6 1 .9.4.2.9.5 1.4.7.5.2 1.1.4 1.6.7.6.2 1.1.5 1.6.8.5.3 1 .7 1.4 1.1.4.4.8 1 1 1.6.1.9.2 1.7.2 2.6z"/><path id="XMLID_298_" class="st0" d="M364.8 391.3l.5-.1c.5-.1 1-.3 1.4-.4.4-.2.8-.4 1.1-.8.3-.3.6-.8.8-1.4.2-.6.3-1.3.3-2.2 0-1.3-.3-2.3-.9-2.9-.6-.6-1.4-.9-2.3-.9h-.7c-.2 0-.5 0-.8.1v17.6h-3.8v-19.5c.4 0 .8-.1 1.3-.1s1-.1 1.5-.1h3c1.1 0 2.1.1 3 .4.8.3 1.5.6 2.1 1.1.6.5 1 1.1 1.2 1.8.3.7.4 1.5.4 2.3 0 .9-.1 1.8-.4 2.6-.3.8-.8 1.5-1.4 2.1-.6.6-1.4 1.1-2.4 1.4-1 .3-2.1.5-3.4.5h-.2l-.3-1.5z"/><path id="XMLID_285_" class="st0" d="M390.9 400.4l-2.2-6.6-7 .1-2.3 6.5H377l7.4-19.5 3.7-.7 6.9 20.1h-4.1zm-2.7-8.5l-2.8-8.5-2.9 8.5h5.7z"/></g><g id="XMLID_28_"><path id="XMLID_280_" class="st0" d="M109.1 326.7c0-8.6 3.1-16.2 7.9-21.3v21.1c0 15.5 11.1 26.8 26 26.8 9.3 0 17.2-4.4 21.7-10.8v-4.6h7.6v6.1c-5.8 10.2-17.2 16.3-29.4 16.3-19-.1-33.8-14.6-33.8-33.6zm33.7-26.3c-8.9 0-16.3 4.3-20.8 9.2v-9c5.3-4.5 12.5-7.3 20.7-7.3 11.1 0 20.5 5 26.5 13.2l-5.8 4.5c-4.9-6.6-11.8-10.6-20.6-10.6zm-.1 25.8h29.7v6.9h-29.7v-6.9z"/><path id="XMLID_277_" class="st0" d="M204.9 326.5c0 15.2 11.1 26.7 25.6 26.7 8.8 0 16.3-4.3 20.9-9.2v9c-5.4 4.5-12.6 7.3-20.8 7.3-18.6 0-33.6-14.3-33.6-33.7 0-8.6 3.1-16 7.9-21.1v21zm59.2.6c0 8.6-3 16-7.8 21.1v-21.1c0-15.3-11.2-26.7-25.7-26.7-8.9 0-16.3 4.3-20.8 9.2v-9c5.3-4.5 12.5-7.3 20.7-7.3 18.6 0 33.6 14.3 33.6 33.8z"/><path id="XMLID_188_" class="st0" d="M292.4 294.4h22.7c12.7 0 20.7 7.8 20.7 18.7 0 11-7.9 18.8-20.7 18.8h-10.3V325H315c8.4 0 12.8-5 12.8-11.9 0-6.8-4.4-12-12.8-12h-15V359h-7.6v-64.6zm25.1 42.5l7.9-1.4 17.5 23.6H334l-16.5-22.2z"/><path id="XMLID_185_" class="st0" d="M385 305.7l4 9.5-10.3 23.9h20.6l2.9 6.9h-26.5l-5.5 13.1h-8l22.8-53.4zm2.5-6.2l2.7-6.2h2.8l28 65.8h-8l-25.5-59.6z"/><path id="XMLID_181_" class="st0" d="M455.5 347.5h-7.6v-53.1h7.6v53.1zm30.6 11.6h-38.3v-6.9h38.3v6.9z"/></g></g></svg>