<?xml version="1.0" encoding="utf-8"?>
<!-- Generator: Adobe Illustrator 20.0.0, SVG Export Plug-In . SVG Version: 6.00 Build 0)  -->
<svg version="1.1" id="Layer_1" xmlns="http://www.w3.org/2000/svg" xmlns:xlink="http://www.w3.org/1999/xlink" x="0px" y="0px"
	 viewBox="0 0 595.3 595.3" style="enable-background:new 0 0 595.3 595.3;" xml:space="preserve">
<style type="text/css">
	.st0{fill:#CAA673;}
</style>
<g id="XMLID_27_">
	<g id="XMLID_328_">
		<g>
			<polygon class="st0" points="297.6,194.6 297.6,194.6 297.6,194.6 			"/>
			<path class="st0" d="M297.6,194.6L297.6,194.6L297.6,194.6L297.6,194.6 M294.8,197.4L294.8,197.4"/>
			<polygon class="st0" points="354.3,251.2 326,223 326,223 314.6,211.6 300.5,226.4 297.6,229.4 294.8,226.4 280.7,211.6 
				272.1,220.2 300.6,248.6 303.4,251.4 354.3,251.4 			"/>
			<polygon class="st0" points="311.8,208.8 297.6,194.6 283.5,208.8 297.6,223.7 			"/>
			<polygon class="st0" points="241,194.6 241,223.7 255.1,208.8 			"/>
			<polygon class="st0" points="269.3,223 269.3,223 257.9,211.6 243.8,226.4 241,229.4 241,251.4 297.8,251.4 			"/>
			<g>
				<polygon class="st0" points="354.3,223.7 354.3,194.6 340.2,208.8 				"/>
			</g>
			<g>
				<polygon class="st0" points="351.5,226.4 337.4,211.6 328.8,220.2 354.3,245.6 354.3,229.4 				"/>
			</g>
		</g>
	</g>
	<g id="XMLID_284_">
		<path id="XMLID_326_" class="st0" d="M212.5,400.4v-8.8h-8.4v8.8h-3.8v-19.6h3.8v8.6h8.4v-8.6h3.8v19.6H212.5z"/>
		<path id="XMLID_322_" class="st0" d="M241.9,390.5c0,1.5-0.2,2.9-0.6,4.2c-0.4,1.2-1,2.3-1.8,3.2c-0.8,0.9-1.8,1.6-2.9,2
			c-1.2,0.5-2.5,0.7-4.1,0.7c-1.6,0-3-0.2-4.1-0.7c-1.1-0.5-2.1-1.2-2.8-2.1c-0.7-0.9-1.3-2-1.6-3.2c-0.3-1.2-0.5-2.6-0.5-4.2
			c0-1.5,0.2-2.9,0.5-4.1c0.4-1.2,0.9-2.3,1.6-3.1c0.7-0.9,1.7-1.5,2.8-2c1.1-0.5,2.5-0.7,4.1-0.7s2.9,0.2,4.1,0.7
			c1.2,0.5,2.1,1.1,2.9,2c0.8,0.9,1.4,1.9,1.8,3.1C241.7,387.6,241.9,389,241.9,390.5z M237.9,390.5c0-1.2-0.1-2.3-0.3-3.2
			c-0.2-0.9-0.5-1.8-1-2.4c-0.4-0.7-1-1.2-1.7-1.5c-0.7-0.3-1.5-0.5-2.4-0.5c-0.8,0-1.6,0.1-2.3,0.3c-0.7,0.2-1.3,0.4-1.7,0.8
			c-0.4,0.3-0.7,1-0.9,2.1c-0.2,1.1-0.3,2.6-0.3,4.5c0,1.2,0.1,2.2,0.3,3.2c0.2,1,0.5,1.8,0.8,2.5c0.4,0.7,0.9,1.2,1.6,1.6
			c0.7,0.4,1.5,0.6,2.5,0.6c1,0,1.8-0.1,2.5-0.3c0.7-0.2,1.2-0.4,1.7-0.7c0.2-0.1,0.4-0.4,0.6-0.9c0.2-0.4,0.3-0.9,0.4-1.6
			c0.1-0.6,0.2-1.3,0.2-2.1C237.8,392.1,237.9,391.3,237.9,390.5z"/>
		<path id="XMLID_320_" class="st0" d="M252.8,400.4v-17.5l-5.7-0.1l0.2-2h15.1l-0.2,1.9l-5.6,0.1v17.5H252.8z"/>
		<path id="XMLID_318_" class="st0" d="M279.3,400.4H268v-19.6h10.8l-0.2,2l-6.8,0.1v6.4l6.4,0.1l-0.2,1.8l-6.3,0.1v7l7.6,0.1
			L279.3,400.4z"/>
		<path id="XMLID_316_" class="st0" d="M285.8,400.4v-19.6h3.8v17.6h7.1l-0.2,2H285.8z"/>
		<path id="XMLID_302_" class="st0" d="M310,395.1c0-1.3,0.3-2.4,1-3.2c0.7-0.9,1.6-1.7,2.9-2.4c-0.4-0.7-0.7-1.4-1-2.1
			c-0.2-0.7-0.3-1.4-0.3-2.2c0-0.7,0.1-1.3,0.3-1.8c0.2-0.6,0.6-1,1-1.4c0.4-0.4,0.9-0.7,1.5-1c0.6-0.2,1.3-0.4,2-0.4
			c0.8,0,1.5,0.1,2.1,0.3c0.6,0.2,1.1,0.4,1.4,0.8c0.4,0.3,0.6,0.7,0.8,1.1c0.2,0.4,0.3,0.9,0.3,1.4c0,0.6-0.1,1.1-0.3,1.6
			c-0.2,0.5-0.5,0.9-0.9,1.3c-0.4,0.4-0.8,0.8-1.3,1.2c-0.5,0.4-1.1,0.7-1.7,1.1c0.6,0.8,1.3,1.7,2.1,2.6c0.8,0.9,1.6,1.8,2.4,2.6
			c0.4-0.7,0.6-1.4,0.8-2.2c0.1-0.8,0.2-1.5,0.2-2.3c0-0.2,0-0.4-0.1-0.7c0-0.3-0.1-0.5-0.1-0.6l2.9-0.5c0.1,0.2,0.2,0.4,0.2,0.7
			c0,0.3,0.1,0.6,0.1,0.8c0,1.1-0.2,2.1-0.7,3.2c-0.4,1-1.1,2-1.9,3c0.9,0.8,1.8,1.5,2.6,2c0.8,0.5,1.6,0.8,2.3,0.8h0.4v1.3
			c-0.5,0.1-0.9,0.3-1.4,0.4c-0.5,0.1-1.1,0.1-1.9,0.1c-0.7,0-1.4-0.2-2.2-0.6c-0.8-0.4-1.5-0.9-2.3-1.6c-0.9,0.7-1.9,1.2-2.9,1.6
			c-1,0.4-2,0.6-3,0.6c-0.9,0-1.7-0.1-2.4-0.4c-0.7-0.3-1.3-0.7-1.7-1.2c-0.5-0.5-0.8-1.1-1.1-1.7C310.2,396.5,310,395.8,310,395.1z
			 M317.1,398.1c1.1,0,2.1-0.3,3.1-1c-0.9-0.9-1.8-1.8-2.6-2.9c-0.8-1-1.6-2-2.3-2.9c-0.5,0.5-0.8,1-1,1.6c-0.2,0.5-0.3,1.1-0.3,1.8
			c0,0.5,0.1,1,0.2,1.4c0.2,0.4,0.4,0.8,0.7,1.1c0.3,0.3,0.6,0.5,1,0.7C316.2,398,316.6,398.1,317.1,398.1z M315.8,384.9
			c0,0.5,0.1,1,0.3,1.5c0.2,0.5,0.5,1,0.8,1.5c0.5-0.3,0.8-0.5,1.1-0.7c0.3-0.2,0.6-0.5,0.8-0.8c0.2-0.3,0.3-0.5,0.4-0.8
			c0.1-0.3,0.1-0.6,0.1-1c0-0.7-0.1-1.3-0.4-1.6c-0.3-0.4-0.7-0.6-1.2-0.6c-0.2,0-0.5,0-0.7,0.1c-0.2,0.1-0.4,0.2-0.6,0.4
			c-0.2,0.2-0.3,0.5-0.4,0.8C315.9,384,315.8,384.4,315.8,384.9z"/>
		<path id="XMLID_300_" class="st0" d="M354,394.6c0,0.7-0.2,1.4-0.5,2.1c-0.3,0.7-0.8,1.4-1.5,1.9c-0.6,0.6-1.4,1-2.3,1.4
			c-0.9,0.4-1.9,0.5-3,0.5c-0.6,0-1.1,0-1.7-0.1c-0.5-0.1-1-0.2-1.4-0.3c-0.4-0.1-0.9-0.3-1.3-0.4c-0.4-0.2-0.8-0.4-1.2-0.6l0.9-2.9
			c0.3,0.2,0.6,0.4,1.1,0.6c0.4,0.2,0.9,0.4,1.5,0.6c0.5,0.2,1.1,0.3,1.6,0.5c0.5,0.1,1,0.2,1.5,0.2c0.5,0,0.9,0,1.2-0.1
			c0.3-0.1,0.6-0.2,0.9-0.3c0.3-0.1,0.5-0.4,0.7-0.9c0.2-0.5,0.3-1,0.3-1.8c0-0.7-0.2-1.2-0.7-1.6c-0.4-0.4-1-0.7-1.6-1
			c-0.7-0.3-1.4-0.6-2.1-0.9c-0.8-0.3-1.5-0.7-2.1-1.1c-0.7-0.5-1.2-1.1-1.6-1.8c-0.4-0.7-0.7-1.7-0.7-2.9c0-0.6,0.1-1.2,0.4-1.8
			c0.3-0.6,0.7-1.2,1.3-1.7c0.6-0.5,1.3-1,2.1-1.3c0.8-0.3,1.8-0.5,2.9-0.5c0.9,0,1.7,0,2.5,0.1c0.8,0.1,1.5,0.2,2.3,0.3l-0.6,2.9
			c-0.3-0.1-0.7-0.2-1.2-0.4c-0.4-0.1-0.9-0.2-1.3-0.3c-0.4-0.1-0.9-0.2-1.3-0.2c-0.4,0-0.8-0.1-1.1-0.1c-0.4,0-0.7,0-1,0.1
			c-0.3,0-0.6,0.1-0.9,0.3c-0.2,0.1-0.4,0.4-0.5,0.7c-0.1,0.3-0.2,0.8-0.2,1.2c0,0.5,0.1,0.9,0.4,1.2c0.3,0.3,0.6,0.6,1,0.9
			c0.4,0.2,0.9,0.5,1.4,0.7c0.5,0.2,1.1,0.4,1.6,0.7c0.6,0.2,1.1,0.5,1.6,0.8c0.5,0.3,1,0.7,1.4,1.1c0.4,0.4,0.8,1,1,1.6
			C353.9,392.9,354,393.7,354,394.6z"/>
		<path id="XMLID_298_" class="st0" d="M364.8,391.3l0.5-0.1c0.5-0.1,1-0.3,1.4-0.4c0.4-0.2,0.8-0.4,1.1-0.8
			c0.3-0.3,0.6-0.8,0.8-1.4c0.2-0.6,0.3-1.3,0.3-2.2c0-1.3-0.3-2.3-0.9-2.9c-0.6-0.6-1.4-0.9-2.3-0.9c-0.2,0-0.5,0-0.7,0
			c-0.2,0-0.5,0-0.8,0.1v17.6h-3.8v-19.5c0.4,0,0.8-0.1,1.3-0.1c0.5,0,1-0.1,1.5-0.1c0.5,0,1,0,1.5,0c0.5,0,1,0,1.5,0
			c1.1,0,2.1,0.1,3,0.4c0.8,0.3,1.5,0.6,2.1,1.1c0.6,0.5,1,1.1,1.2,1.8c0.3,0.7,0.4,1.5,0.4,2.3c0,0.9-0.1,1.8-0.4,2.6
			c-0.3,0.8-0.8,1.5-1.4,2.1c-0.6,0.6-1.4,1.1-2.4,1.4c-1,0.3-2.1,0.5-3.4,0.5h-0.2L364.8,391.3z"/>
		<path id="XMLID_285_" class="st0" d="M390.9,400.4l-2.2-6.6l-7,0.1l-2.3,6.5h-2.4l7.4-19.5l3.7-0.7l6.9,20.1H390.9z M388.2,391.9
			l-2.8-8.5l-2.9,8.5H388.2z"/>
	</g>
	<g id="XMLID_28_">
		<path id="XMLID_280_" class="st0" d="M109.1,326.7c0-8.6,3.1-16.2,7.9-21.3v21.1c0,15.5,11.1,26.8,26,26.8
			c9.3,0,17.2-4.4,21.7-10.8v-4.6h7.6v6.1c-5.8,10.2-17.2,16.3-29.4,16.3C123.9,360.2,109.1,345.7,109.1,326.7z M142.8,300.4
			c-8.9,0-16.3,4.3-20.8,9.2v-9c5.3-4.5,12.5-7.3,20.7-7.3c11.1,0,20.5,5,26.5,13.2l-5.8,4.5C158.5,304.4,151.6,300.4,142.8,300.4z
			 M142.7,326.2h29.7v6.9h-29.7V326.2z"/>
		<path id="XMLID_277_" class="st0" d="M204.9,326.5c0,15.2,11.1,26.7,25.6,26.7c8.8,0,16.3-4.3,20.9-9.2v9
			c-5.4,4.5-12.6,7.3-20.8,7.3c-18.6,0-33.6-14.3-33.6-33.7c0-8.6,3.1-16,7.9-21.1V326.5z M264.1,327.1c0,8.6-3,16-7.8,21.1v-21.1
			c0-15.3-11.2-26.7-25.7-26.7c-8.9,0-16.3,4.3-20.8,9.2v-9c5.3-4.5,12.5-7.3,20.7-7.3C249.1,293.3,264.1,307.6,264.1,327.1z"/>
		<path id="XMLID_188_" class="st0" d="M292.4,294.4h22.7c12.7,0,20.7,7.8,20.7,18.7c0,11-7.9,18.8-20.7,18.8h-10.3v-6.9h10.2
			c8.4,0,12.8-5,12.8-11.9c0-6.8-4.4-12-12.8-12h-15v57.9h-7.6V294.4z M317.5,336.9l7.9-1.4l17.5,23.6H334L317.5,336.9z"/>
		<path id="XMLID_185_" class="st0" d="M385,305.7l4,9.5l-10.3,23.9h20.6l2.9,6.9h-26.5l-5.5,13.1h-8L385,305.7z M387.5,299.5
			l2.7-6.2h2.8l28,65.8H413L387.5,299.5z"/>
		<path id="XMLID_181_" class="st0" d="M455.5,347.5h-7.6v-53.1h7.6V347.5z M486.1,359.1h-38.3v-6.9h38.3V359.1z"/>
	</g>
</g>
</svg>
