<svg id="Capa_1" xmlns="http://www.w3.org/2000/svg" viewBox="0 0 40 40"><style>.st0{fill:#fff}</style><path class="st0" d="M38.4 11.1c.7-2.2-.7-5.1-3.4-7-3.5-2.5-9-3.3-14.7 1.3l-3.2-3.2c-.3-.3-.7-.3-1 0L-.3 18.6c-.1.1-.2.3-.2.5s.1.4.2.5l7 7c.1.1.3.2.5.2s.4-.1.5-.2l16.4-16.4c.3-.3.3-.7 0-1l-2.8-2.8c5-4 9.8-3.3 12.8-1.2 1.9 1.3 3 3.2 3 4.7-1.4-1.1-3.2-1.6-5-1.6-2.2 0-4.3.9-5.9 2.4-1.2 1.3-2 3-2.2 4.8-.2 1.6 0 3.2.7 4.6L12.2 32.5c-.1.1-.2.3-.2.5v4.4c0 .4.3.7.7.7h4.4c.2 0 .4-.1.5-.2l13.1-13.1c.5.1 1 .1 1.5.1 2.2 0 4.3-.9 5.9-2.4s2.4-3.7 2.4-5.9c0-2-.8-4-2.1-5.5zM22.6 9.6L7.2 25.1l-6-6L16.6 3.7l2.6 2.6c-.2.2-.4.4-.6.7-.3.3-.3.7 0 1 .3.3.7.3 1 0l.7-.7 2.3 2.3zm14.5 11.9c-1.3 1.3-3 2-4.9 2-.5 0-1.1-.1-1.6-.2-.2-.1-.5 0-.7.2L16.8 36.6h-3.4v-3.4l2.7-2.7.8.8c.1.1.3.2.5.2s.4-.1.5-.2c.3-.3.3-.7 0-1l-.8-.8 1.8-1.8 1.4 1.4c.1.1.3.2.5.2s.4-.1.5-.2c.3-.3.3-.7 0-1l-1.4-1.4 1.7-1.7.8.8c.1.1.3.2.5.2s.4-.1.5-.2c.3-.3.3-.7 0-1l-.8-.8 3.4-3.4c.2-.2.3-.6.1-.8-1.4-2.7-1-6 1.2-8.1 1.3-1.3 3-2 4.9-2 1.8 0 3.6.7 4.9 2 1.3 1.3 2 3 2 4.9 0 1.9-.7 3.6-2 4.9z"/><path class="st0" d="M33.3 12.3c-.4-.4-1.1-.4-1.5 0-.4.4-.4 1.1 0 1.5L35 17c.4.4 1.1.4 1.5 0s.4-1.1 0-1.5l-3.2-3.2z"/></svg>