<svg id="Layer_1" xmlns="http://www.w3.org/2000/svg" viewBox="0 0 40 40"><style>.st0{fill:#fff}</style><path class="st0" d="M37.1 19.9c3.1-5 2.2-11.7-2.3-15.6L33.3 3c-5.1-4.5-12.9-4-17.4 1l-5.1 5.8C9.5 11.2 8.6 13 8.1 15c-.8 3.4-.2 7 1.7 9.8.1.8 0 2.6-1.1 4.1l-2.4.5-5 5.6c-.4.4-.5 1.2.1 1.7L5 39.9c.6.5 1.3.3 1.7-.1l5-5.6.2-2.4c1.3-1.3 3.1-1.5 3.9-1.6 3.1 1.6 6.7 1.8 10 .6 1.9-.7 3.5-1.8 4.8-3.3l.5-.6c1.9 1.2 4.4.9 5.9-.8 1.7-1.9 1.6-4.5.1-6.2zM5.9 38.6l-3.2-2.9 1-1.1 3.2 2.9-1 1.1zm1.9-2.2l-3.2-2.9 1-1.1 3.2 2.9-1 1.1zm1.9-2.1l-3.2-2.9.6-.7 2.4-.5.2-.2c1-1.1 1.4-2.4 1.6-3.5.2.2.4.4.7.6l1.4 1.3c.2.2.5.4.7.6-1.1.3-2.3.9-3.3 2l-.2.2-.2 2.4-.7.7zm6.7-5.5c-.8-.4-1.5-.9-2.1-1.5L12.8 26c-.6-.6-1.2-1.2-1.7-1.9-1.6-2.2-2.2-5-1.8-7.7l14.9 13.3c-2.6.7-5.4.4-7.8-.9zm13.2-2.4c-1.1 1.2-2.4 2.1-3.8 2.7L9.7 14.8c.4-1.5 1.2-2.9 2.3-4.1l5.1-5.8C21 .5 27.9.1 32.4 4l1.4 1.3c3.9 3.5 4.8 9.2 2.1 13.6-.8-.5-1.7-.7-2.6-.6-1.2.1-2.3.6-3.1 1.5-1.5 1.7-1.5 4.2-.1 5.9l-.5.7zm2-1.1c-1.3-1.1-1.4-3.1-.3-4.4 1.1-1.3 3.1-1.4 4.4-.3 1.3 1.2 1.4 3.1.3 4.4-1.1 1.3-3.1 1.4-4.4.3z"/></svg>