<svg id="Layer_1" xmlns="http://www.w3.org/2000/svg" viewBox="0 0 40 40"><style>.st0{fill:none;stroke:#fff;stroke-width:1.9286;stroke-linecap:round;stroke-linejoin:round;stroke-miterlimit:10}.st1{fill:#fff}</style><path class="st0" d="M-.3 36.1c0 2.3 1.8 4.1 4.1 4.1H36c2.3 0 4.1-1.8 4.1-4.1V3.9c0-2.3-1.8-4.1-4.1-4.1H3.9C1.6-.2-.2 1.6-.2 3.9v32.2z"/><path class="st1" d="M21.1 21.4h-3v5.3c0 .7-.6 1.3-1.3 1.3-.7 0-1.3-.6-1.3-1.3V12.4c0-.7.6-1.3 1.3-1.3h4.3c2.9 0 5.2 2.3 5.2 5.2 0 2.8-2.3 5.1-5.2 5.1zm-2.9-2.7h3c1.4 0 2.5-1.1 2.5-2.5s-1.1-2.5-2.5-2.5h-3v5z"/></svg>