<svg id="Capa_1" xmlns="http://www.w3.org/2000/svg" viewBox="0 0 40 40"><style>.st0{fill:none;stroke-width:.8827;stroke-miterlimit:10}.st0,.st1{stroke:#fff}.st1,.st2,.st3{fill:none;stroke-miterlimit:10}.st1{stroke-width:.7615}.st2{stroke:#024;stroke-width:.9563}.st3{stroke:#fff;stroke-width:.8092}.st4{fill:#fff}</style><path class="st0" d="M11.5 9.2h25.9v28.6H11.5z"/><path class="st1" d="M13.3 11.1h22.1V36H13.3z"/><path class="st3" d="M24.4 11.4v24.2M13.3 21.3h22.1"/><path class="st4" d="M8.9 37.8H40v1.7H8.9zM13 5.1c1.7.8 2.8 2.4 2.9 4.2h.3c.1 0 .2.1.3.2 0-2.1-1.2-4-3.2-4.9-2.7-1.2-6 0-7.2 2.7-1.2 2.7 0 6 2.7 7.2 1 .4 2 .6 2.9.4v-.6c-.9.1-1.8 0-2.7-.4-2.4-1.1-3.5-4-2.4-6.4 1-2.5 3.9-3.6 6.4-2.4zm.9-2.2c-.1-.1-.2-.2-.1-.4l.9-2.1c.1-.1.2-.2.4-.1.1.1.2.2.1.4l-.9 2.1c-.1.1-.2.2-.4.1zM6.8 18.7c-.1-.1-.2-.2-.1-.4l.9-2.1c.1-.1.2-.2.4-.1.1.1.2.2.1.4l-.9 2.1c-.1.1-.3.2-.4.1zM4 6.7l-2.1-1c-.2-.1-.2-.2-.2-.4.1-.1.3-.2.4-.1l2.1.9c.1.1.2.2.1.4 0 .2-.2.2-.3.2zm4.2-4c-.1 0-.1-.1-.2-.2L7.2.4c-.1-.2 0-.3.2-.4s.3 0 .4.2l.8 2.2c.1.1 0 .3-.2.4-.1-.1-.2-.1-.2-.1zM1.6 13.2c-.1 0-.1-.1-.2-.2s0-.3.2-.4l2.2-.8c.1-.1.3 0 .4.2.1.1 0 .3-.2.4l-2.2.8c0 .1-.1 0-.2 0zm16.3-6.1c-.1 0-.1-.1-.2-.2s0-.3.2-.4l2.1-.8c.1-.1.3 0 .4.2s0 .3-.2.4l-2.2.8h-.1z"/></svg>