<svg xmlns="http://www.w3.org/2000/svg" viewBox="0 0 512 512" width="512" height="512"><path d="M500.406 223.531l-4.469-5.211c-9.875-11.531-16.094-34.734-13.312-49.664l1.266-6.742c2.125-11.289-.078-23.336-6.188-33.914s-15.438-18.508-26.266-22.32l-6.484-2.281c-14.328-5.047-31.312-22.031-36.359-36.359l-2.281-6.469c-6.781-19.266-26.859-33.25-47.766-33.25-2.844 0-5.688.266-8.453.781l-6.75 1.266c-2.391.445-5.062.672-7.922.672-14.734 0-32.297-5.883-41.75-13.984l-5.203-4.461C279.75 4.117 268.219 0 256 0s-23.75 4.117-32.469 11.594l-5.203 4.461c-9.453 8.102-27.016 13.984-41.75 13.984-2.875 0-5.531-.227-7.922-.672l-6.75-1.266a46.115 46.115 0 0 0-8.469-.773c-20.891 0-40.969 13.977-47.766 33.242l-2.266 6.469c-5.047 14.328-22.047 31.312-36.359 36.359l-6.484 2.281c-10.828 3.812-20.156 11.742-26.266 22.32-6.11 10.578-8.312 22.625-6.188 33.914l1.25 6.742c2.797 14.93-3.422 38.133-13.297 49.664l-4.469 5.211C4.109 232.258 0 243.789 0 256s4.125 23.75 11.594 32.469l4.469 5.203c9.875 11.531 16.094 34.734 13.297 49.672l-1.25 6.75c-2.125 11.281.078 23.328 6.188 33.906 6.11 10.578 15.438 18.5 26.281 22.312l6.469 2.281c14.312 5.047 31.312 22.031 36.359 36.359l2.281 6.484c6.781 19.25 26.859 33.234 47.75 33.234 2.875 0 5.719-.266 8.469-.781l6.75-1.266c2.391-.438 5.047-.656 7.922-.656 14.734 0 32.297 5.875 41.734 13.969l5.219 4.469C232.25 507.875 243.781 512 256 512s23.75-4.125 32.469-11.594l5.203-4.469c9.453-8.094 27.016-13.969 41.75-13.969 2.875 0 5.531.219 7.922.656l6.734 1.281c2.766.5 5.609.766 8.469.766 20.906 0 40.984-13.984 47.766-33.234l2.281-6.484c5.047-14.328 22.031-31.312 36.359-36.359l6.484-2.281c10.828-3.812 20.156-11.734 26.266-22.312s8.297-22.625 6.188-33.906l-1.266-6.75c-2.781-14.938 3.438-38.141 13.312-49.656l4.469-5.219C507.875 279.75 512 268.219 512 256c0-12.211-4.125-23.742-11.594-32.469zm-16.203 51.063l-4.453 5.188c-14.141 16.5-22.078 46.141-18.094 67.484l1.266 6.734c2.438 13.062-6.062 27.781-18.578 32.188l-6.469 2.281c-20.484 7.219-42.188 28.922-49.406 49.406l-2.266 6.469c-3.828 10.828-15.703 19-27.656 19-1.531 0-3.062-.141-4.531-.406l-6.75-1.281c-3.672-.688-7.656-1.031-11.844-1.031-19.938 0-42.297 7.688-55.625 19.125l-5.219 4.469c-4.859 4.156-11.453 6.438-18.578 6.438s-13.719-2.281-18.578-6.438l-5.219-4.469c-13.344-11.438-35.688-19.125-55.625-19.125-4.188 0-8.172.344-11.844 1.031l-6.75 1.266a24.146 24.146 0 0 1-4.547.422c-11.938 0-23.828-8.172-27.641-19l-2.281-6.469c-7.203-20.5-28.906-42.188-49.391-49.406l-6.469-2.281c-12.514-4.408-21.03-19.127-18.577-32.189l1.266-6.734c3.984-21.359-3.953-50.984-18.094-67.484l-4.453-5.188c-8.641-10.086-8.641-27.102 0-37.18l4.453-5.211c14.141-16.484 22.078-46.125 18.078-67.469l-1.25-6.75c-2.453-13.039 6.062-27.773 18.578-32.18l6.469-2.281c20.484-7.219 42.188-28.914 49.391-49.398l2.281-6.469c3.812-10.828 15.703-19 27.641-19 1.547 0 3.078.141 4.547.414l6.75 1.266c3.672.688 7.656 1.039 11.844 1.039 19.938 0 42.281-7.688 55.625-19.117l5.219-4.469c4.859-4.164 11.453-6.453 18.578-6.453s13.719 2.289 18.578 6.453l5.219 4.469c13.328 11.43 35.688 19.117 55.625 19.117 4.188 0 8.172-.352 11.844-1.039l6.75-1.266c1.469-.273 3-.414 4.531-.414 11.953 0 23.844 8.164 27.656 19l2.266 6.469c7.219 20.484 28.922 42.18 49.406 49.398l6.469 2.281c12.516 4.406 21.031 19.141 18.578 32.18l-1.266 6.75c-3.984 21.344 3.953 50.984 18.094 67.477l4.453 5.203c8.64 10.078 8.64 27.094-.001 37.18z" fill="#FFF"/><path d="M362.672 138.664a10.646 10.646 0 0 0-7.547 3.125L141.797 355.125a10.603 10.603 0 0 0-3.125 7.531c0 5.906 4.766 10.688 10.656 10.688 2.953 0 5.609-1.203 7.547-3.125l213.328-213.344a10.594 10.594 0 0 0 3.125-7.539c0-5.891-4.766-10.672-10.656-10.672zm-170.672 0c-29.453 0-53.328 23.883-53.328 53.336s23.875 53.336 53.328 53.336 53.328-23.883 53.328-53.336-23.875-53.336-53.328-53.336zM192 224c-17.641 0-32-14.352-32-32s14.359-32 32-32 32 14.352 32 32-14.359 32-32 32zm128 42.664c-29.453 0-53.328 23.883-53.328 53.336s23.875 53.344 53.328 53.344 53.328-23.891 53.328-53.344-23.875-53.336-53.328-53.336zM320 352c-17.641 0-32-14.344-32-32s14.359-32 32-32 32 14.344 32 32-14.359 32-32 32z" fill="#FFF"/></svg>