<?xml version="1.0" encoding="utf-8"?>
<!-- Generator: Adobe Illustrator 20.0.0, SVG Export Plug-In . SVG Version: 6.00 Build 0)  -->
<svg version="1.1" id="Capa_1" xmlns="http://www.w3.org/2000/svg" xmlns:xlink="http://www.w3.org/1999/xlink" x="0px" y="0px"
	 viewBox="0 0 40 40" style="enable-background:new 0 0 40 40;" xml:space="preserve">
<style type="text/css">
	.st0{fill:#FFFFFF;}
</style>
<g>
	<g>
		<path class="st0" d="M38.4,11.1c0.7-2.2-0.7-5.1-3.4-7c-3.5-2.5-9-3.3-14.7,1.3l-3.2-3.2c-0.3-0.3-0.7-0.3-1,0L-0.3,18.6
			c-0.1,0.1-0.2,0.3-0.2,0.5c0,0.2,0.1,0.4,0.2,0.5l7,7c0.1,0.1,0.3,0.2,0.5,0.2s0.4-0.1,0.5-0.2l16.4-16.4c0.3-0.3,0.3-0.7,0-1
			l-2.8-2.8c5-4,9.8-3.3,12.8-1.2c1.9,1.3,3,3.2,3,4.7c-1.4-1.1-3.2-1.6-5-1.6c-2.2,0-4.3,0.9-5.9,2.4C25,12,24.2,13.7,24,15.5
			c-0.2,1.6,0,3.2,0.7,4.6L12.2,32.5C12.1,32.6,12,32.8,12,33v4.4c0,0.4,0.3,0.7,0.7,0.7h4.4c0.2,0,0.4-0.1,0.5-0.2l13.1-13.1
			c0.5,0.1,1,0.1,1.5,0.1l0,0c2.2,0,4.3-0.9,5.9-2.4s2.4-3.7,2.4-5.9C40.5,14.6,39.7,12.6,38.4,11.1z M22.6,9.6L7.2,25.1l-6-6
			L16.6,3.7l2.6,2.6C19,6.5,18.8,6.7,18.6,7c-0.3,0.3-0.3,0.7,0,1c0.3,0.3,0.7,0.3,1,0c0.2-0.2,0.5-0.5,0.7-0.7L22.6,9.6z
			 M37.1,21.5c-1.3,1.3-3,2-4.9,2c-0.5,0-1.1-0.1-1.6-0.2c-0.2-0.1-0.5,0-0.7,0.2L16.8,36.6h-3.4v-3.4l2.7-2.7l0.8,0.8
			c0.1,0.1,0.3,0.2,0.5,0.2c0.2,0,0.4-0.1,0.5-0.2c0.3-0.3,0.3-0.7,0-1l-0.8-0.8l1.8-1.8l1.4,1.4c0.1,0.1,0.3,0.2,0.5,0.2
			s0.4-0.1,0.5-0.2c0.3-0.3,0.3-0.7,0-1l-1.4-1.4l1.7-1.7l0.8,0.8c0.1,0.1,0.3,0.2,0.5,0.2s0.4-0.1,0.5-0.2c0.3-0.3,0.3-0.7,0-1
			l-0.8-0.8l3.4-3.4c0.2-0.2,0.3-0.6,0.1-0.8c-1.4-2.7-1-6,1.2-8.1c1.3-1.3,3-2,4.9-2c1.8,0,3.6,0.7,4.9,2c1.3,1.3,2,3,2,4.9
			C39.1,18.5,38.4,20.2,37.1,21.5z"/>
		<path class="st0" d="M33.3,12.3c-0.4-0.4-1.1-0.4-1.5,0c-0.4,0.4-0.4,1.1,0,1.5L35,17c0.4,0.4,1.1,0.4,1.5,0s0.4-1.1,0-1.5
			L33.3,12.3z"/>
	</g>
</g>
</svg>
