<?xml version="1.0" encoding="utf-8"?>
<!-- Generator: Adobe Illustrator 20.0.0, SVG Export Plug-In . SVG Version: 6.00 Build 0)  -->
<svg version="1.1" id="Layer_1" xmlns="http://www.w3.org/2000/svg" xmlns:xlink="http://www.w3.org/1999/xlink" x="0px" y="0px"
	 viewBox="0 0 40 40" style="enable-background:new 0 0 40 40;" xml:space="preserve">
<style type="text/css">
	.st0{fill:#FFFFFF;}
</style>
<g>
	<g>
		<path class="st0" d="M37.1,19.9c3.1-5,2.2-11.7-2.3-15.6L33.3,3c-5.1-4.5-12.9-4-17.4,1l-5.1,5.8C9.5,11.2,8.6,13,8.1,15
			c-0.8,3.4-0.2,7,1.7,9.8c0.1,0.8,0,2.6-1.1,4.1l-2.4,0.5l-5,5.6c-0.4,0.4-0.5,1.2,0.1,1.7l3.6,3.2c0.6,0.5,1.3,0.3,1.7-0.1l5-5.6
			l0.2-2.4c1.3-1.3,3.1-1.5,3.9-1.6c3.1,1.6,6.7,1.8,10,0.6c1.9-0.7,3.5-1.8,4.8-3.3l0.5-0.6c1.9,1.2,4.4,0.9,5.9-0.8
			C38.7,24.2,38.6,21.6,37.1,19.9z M5.9,38.6l-3.2-2.9l1-1.1l3.2,2.9L5.9,38.6z M7.8,36.4l-3.2-2.9l1-1.1l3.2,2.9L7.8,36.4z
			 M9.7,34.3l-3.2-2.9l0.6-0.7l2.4-0.5L9.7,30c1-1.1,1.4-2.4,1.6-3.5c0.2,0.2,0.4,0.4,0.7,0.6l1.4,1.3c0.2,0.2,0.5,0.4,0.7,0.6
			c-1.1,0.3-2.3,0.9-3.3,2l-0.2,0.2l-0.2,2.4L9.7,34.3L9.7,34.3z M16.4,28.8c-0.8-0.4-1.5-0.9-2.1-1.5L12.8,26
			c-0.6-0.6-1.2-1.2-1.7-1.9c-1.6-2.2-2.2-5-1.8-7.7l14.9,13.3C21.6,30.4,18.8,30.1,16.4,28.8z M29.6,26.4c-1.1,1.2-2.4,2.1-3.8,2.7
			L9.7,14.8c0.4-1.5,1.2-2.9,2.3-4.1l5.1-5.8C21,0.5,27.9,0.1,32.4,4l1.4,1.3c3.9,3.5,4.8,9.2,2.1,13.6c-0.8-0.5-1.7-0.7-2.6-0.6
			c-1.2,0.1-2.3,0.6-3.1,1.5c-1.5,1.7-1.5,4.2-0.1,5.9L29.6,26.4z M31.6,25.3c-1.3-1.1-1.4-3.1-0.3-4.4c1.1-1.3,3.1-1.4,4.4-0.3l0,0
			c0,0,0,0,0,0c1.3,1.2,1.4,3.1,0.3,4.4C34.9,26.3,32.9,26.4,31.6,25.3z"/>
	</g>
</g>
</svg>
