<?xml version="1.0" encoding="utf-8"?>
<!-- Generator: Adobe Illustrator 20.0.0, SVG Export Plug-In . SVG Version: 6.00 Build 0)  -->
<svg version="1.1" id="Layer_1" xmlns="http://www.w3.org/2000/svg" xmlns:xlink="http://www.w3.org/1999/xlink" x="0px" y="0px"
	 viewBox="0 0 40 40" style="enable-background:new 0 0 40 40;" xml:space="preserve">
<style type="text/css">
	.st0{fill:none;stroke:#FFFFFF;stroke-width:1.9286;stroke-linecap:round;stroke-linejoin:round;stroke-miterlimit:10;}
	.st1{fill:#FFFFFF;}
</style>
<g>
	<path class="st0" d="M-0.3,36.1c0,2.3,1.8,4.1,4.1,4.1h32.2c2.3,0,4.1-1.8,4.1-4.1V3.9c0-2.3-1.8-4.1-4.1-4.1H3.9
		c-2.3,0-4.1,1.8-4.1,4.1V36.1z"/>
	<g>
		<path class="st1" d="M21.1,21.4h-3v5.3c0,0.7-0.6,1.3-1.3,1.3c-0.7,0-1.3-0.6-1.3-1.3V12.4c0-0.7,0.6-1.3,1.3-1.3h0h4.3
			c2.9,0,5.2,2.3,5.2,5.2C26.3,19.1,24,21.4,21.1,21.4z M18.2,18.7h3c1.4,0,2.5-1.1,2.5-2.5c0-1.4-1.1-2.5-2.5-2.5h-3V18.7z"/>
	</g>
</g>
</svg>
