<?xml version="1.0" encoding="utf-8"?>
<!-- Generator: Adobe Illustrator 20.0.0, SVG Export Plug-In . SVG Version: 6.00 Build 0)  -->
<svg version="1.1" id="Capa_1" xmlns="http://www.w3.org/2000/svg" xmlns:xlink="http://www.w3.org/1999/xlink" x="0px" y="0px"
	 viewBox="0 0 40 40" style="enable-background:new 0 0 40 40;" xml:space="preserve">
<style type="text/css">
	.st0{fill:none;stroke:#FFFFFF;stroke-width:0.8827;stroke-miterlimit:10;}
	.st1{fill:none;stroke:#FFFFFF;stroke-width:0.7615;stroke-miterlimit:10;}
	.st2{fill:none;stroke:#002244;stroke-width:0.9563;stroke-miterlimit:10;}
	.st3{fill:none;stroke:#FFFFFF;stroke-width:0.8092;stroke-miterlimit:10;}
	.st4{fill:#FFFFFF;}
</style>
<g>
	<g>
		<rect x="11.5" y="9.2" class="st0" width="25.9" height="28.6"/>
		<rect x="13.3" y="11.1" class="st1" width="22.1" height="24.9"/>
	</g>
	<circle class="st2" cx="20" cy="10.6" r="0"/>
	<line class="st3" x1="24.4" y1="11.4" x2="24.4" y2="35.6"/>
	<line class="st3" x1="13.3" y1="21.3" x2="35.4" y2="21.3"/>
	<rect x="8.9" y="37.8" class="st4" width="31.1" height="1.7"/>
	<g>
		<path class="st4" d="M13,5.1c1.7,0.8,2.8,2.4,2.9,4.2h0.3c0.1,0,0.2,0.1,0.3,0.2c0-2.1-1.2-4-3.2-4.9c-2.7-1.2-6,0-7.2,2.7
			c-1.2,2.7,0,6,2.7,7.2c1,0.4,2,0.6,2.9,0.4c0-0.2,0-0.4,0-0.6c-0.9,0.1-1.8,0-2.7-0.4c-2.4-1.1-3.5-4-2.4-6.4
			C7.6,5,10.5,3.9,13,5.1z"/>
		<g>
			<path class="st4" d="M13.9,2.9c-0.1-0.1-0.2-0.2-0.1-0.4l0.9-2.1c0.1-0.1,0.2-0.2,0.4-0.1c0.1,0.1,0.2,0.2,0.1,0.4l-0.9,2.1
				C14.2,2.9,14.1,3,13.9,2.9z"/>
			<path class="st4" d="M6.8,18.7c-0.1-0.1-0.2-0.2-0.1-0.4l0.9-2.1C7.7,16.1,7.8,16,8,16.1c0.1,0.1,0.2,0.2,0.1,0.4l-0.9,2.1
				C7.1,18.7,6.9,18.8,6.8,18.7z"/>
		</g>
		<g>
			<path class="st4" d="M4,6.7L1.9,5.7C1.7,5.6,1.7,5.5,1.7,5.3C1.8,5.2,2,5.1,2.1,5.2l2.1,0.9c0.1,0.1,0.2,0.2,0.1,0.4
				C4.3,6.7,4.1,6.7,4,6.7z"/>
		</g>
		<g>
			<path class="st4" d="M8.2,2.7C8.1,2.7,8.1,2.6,8,2.5L7.2,0.4C7.1,0.2,7.2,0.1,7.4,0s0.3,0,0.4,0.2l0.8,2.2c0.1,0.1,0,0.3-0.2,0.4
				C8.3,2.7,8.2,2.7,8.2,2.7z"/>
		</g>
		<g>
			<path class="st4" d="M1.6,13.2c-0.1,0-0.1-0.1-0.2-0.2c-0.1-0.1,0-0.3,0.2-0.4l2.2-0.8c0.1-0.1,0.3,0,0.4,0.2
				c0.1,0.1,0,0.3-0.2,0.4l-2.2,0.8C1.8,13.3,1.7,13.2,1.6,13.2z"/>
			<path class="st4" d="M17.9,7.1c-0.1,0-0.1-0.1-0.2-0.2c-0.1-0.1,0-0.3,0.2-0.4L20,5.7c0.1-0.1,0.3,0,0.4,0.2s0,0.3-0.2,0.4
				l-2.2,0.8C18,7.1,17.9,7.1,17.9,7.1z"/>
		</g>
	</g>
</g>
</svg>
