<?xml version="1.0" encoding="utf-8"?>
<!-- Generator: Adobe Illustrator 20.0.0, SVG Export Plug-In . SVG Version: 6.00 Build 0)  -->
<svg version="1.1" id="Layer_1" xmlns="http://www.w3.org/2000/svg" xmlns:xlink="http://www.w3.org/1999/xlink" x="0px" y="0px"
	 viewBox="0 0 512 512" style="enable-background:new 0 0 512 512;" xml:space="preserve">
<style type="text/css">
	.st0{fill:#002244;}
	.st1{fill:none;stroke:#002244;stroke-width:11;stroke-miterlimit:10;}
</style>
<g>
	<path class="st0" d="M464,244.1v-85.9c0-51.9-42.2-94.1-94.1-94.1H142.1C90.2,64,48,106.2,48,158.1V244c-27.9,9.8-48,36.5-48,67.7
		v16.5c0,28.2,16.3,52.6,40,64.3l16,5.7c5.1,1.1,10.3,1.8,15.8,1.8h368.5c5.4,0,10.7-0.6,15.8-1.8l16-5.6c23.7-11.7,40-36.2,40-64.3
		v-16.5C512,280.5,491.9,253.9,464,244.1z M64,158.1C64,115,99,80,142.1,80h227.8c43.1,0,78.1,35,78.1,78.1v63.6
		c-8.5-9.6-19.6-16.4-32-19.6v-24c0-18.8-15.3-34.1-34.1-34.1H306c-18.8,0-34.1,15.3-34.1,34.1V200h-32v-21.9
		c0-18.8-15.3-34.1-34.1-34.1h-75.9c-18.8,0-34.1,15.3-34.1,34.1v24c-12.4,3.2-23.5,10.1-32,19.6C64,221.7,64,158.1,64,158.1z
		 M400,216c17.2,0,33.1,9.3,41.6,24.1c-0.5,0-0.9,0-1.4,0H71.8c-0.5,0-0.9,0-1.4,0C78.9,225.3,94.8,216,112,216H400z M112,200v-21.9
		c0-10,8.1-18.1,18.1-18.1H206c10,0,18.1,8.1,18.1,18.1V200H112L112,200z M400,200H288v-21.9c0-10,8.1-18.1,18.1-18.1H382
		c10,0,18.1,8.1,18.1,18.1L400,200L400,200z M440.2,384H71.8C41,384,16,359,16,328.2v-16.5C16,281,41,256,71.8,256h368.5
		c30.7,0,55.8,25,55.8,55.8v16.5l0,0C496,359,471,384,440.2,384z"/>
	<path class="st1" d="M445.3,448.3h-7.4c-5.5,0-10.1-4.5-10.1-10.1v-38.9c0-5.5,4.5-10.1,10.1-10.1h7.4c5.5,0,10.1,4.5,10.1,10.1
		v38.9C455.4,443.8,450.8,448.3,445.3,448.3z"/>
	<path class="st1" d="M74.1,448.3h-7.4c-5.5,0-10.1-4.5-10.1-10.1v-38.9c0-5.5,4.5-10.1,10.1-10.1h7.4c5.5,0,10.1,4.5,10.1,10.1
		v38.9C84.2,443.8,79.6,448.3,74.1,448.3z"/>
</g>
</svg>
