<?xml version="1.0" encoding="utf-8"?>
<!-- Generator: Adobe Illustrator 20.0.0, SVG Export Plug-In . SVG Version: 6.00 Build 0)  -->
<svg version="1.1" id="Capa_1" xmlns="http://www.w3.org/2000/svg" xmlns:xlink="http://www.w3.org/1999/xlink" x="0px" y="0px"
	 viewBox="0 0 512 512" style="enable-background:new 0 0 512 512;" xml:space="preserve">
<style type="text/css">
	.st0{fill:#002244;}
</style>
<g>
	<path class="st0" d="M351.9,451.5c5.8,0,10.4-4.7,10.4-10.4v-23.9c10.5-5.3,24.3-18.1,31.3-49.3c11.5-51.1,18.8-80.5,25.5-101.4
		c10.4-32.8,27.9-56.6,37-67.5c20.1-21.1,32.4-48.7,32.4-78.8c0,0,0-0.1,0-0.1C488.4,53.9,429.5,0,357.1,0c-0.1,0-0.3,0-0.4,0
		c-3.2,0.1-79.1,3.4-222,50.7L68.5,30.9c-1-0.3-2-0.4-3-0.4c-27.5,0-41.9,45.1-41.9,89.6c0,44.5,14.4,89.6,41.9,89.6
		c1,0,2-0.1,3-0.4l66.3-19.7c79.4,26.3,138.1,38.9,175.1,45c3.4,4.8,9.9,16.1,4.4,25.6c-1.9,3.2-4.4,7-7.4,11.5
		c-14.5,21.9-36.5,54.9-26.4,86.7c8.8,27.7,17.8,47.9,20.8,54.5v28.3c0,5.8,4.7,10.4,10.4,10.4h9.6V473c0,21.5,17.5,39,39,39h107.2
		c5.8,0,10.4-4.7,10.4-10.4c0-5.8-4.7-10.4-10.4-10.4H360.3c-10,0-18.1-8.1-18.1-18.1v-21.5H351.9z M124.5,170.9l-60,17.8
		c-6.7-2.1-20.1-25.4-20.1-68.6c0-43.1,13.3-66.4,20.1-68.6l60,17.8L124.5,170.9z M322.2,430.6v-9.7h19.3v9.7H322.2z M145.4,171.1
		V69.2c134-43.9,208.1-48.1,212-48.3C418.1,21,467.5,65.4,467.5,120c0,0,0,0.1,0,0.1c0,54.7-49.4,99.1-110.2,99.2
		C353.4,219.2,279.8,215.2,145.4,171.1z M331.5,272.1h8.2c4.2,0,7.9,5.4,7.9,11.6c0,6.2-3.7,11.6-7.9,11.6h-23.2
		C319.2,291,329.5,275.5,331.5,272.1z M300.4,352c-3.5-11.1-0.6-23.7,4.7-35.9h34.6c15.9,0,28.8-14.6,28.8-32.5
		c0-17.9-12.9-32.5-28.8-32.5h-2.4c-0.1-4.6-1-9-2.4-13c13.5,1.6,22,2,22.1,2c20,0.6,37.9-3.9,54.5-10.8
		c-4.6,9.2-8.9,19.5-12.5,30.8c-6.8,21.5-14.3,51.4-25.9,103.1c-7.7,34.5-23.1,36.6-24.4,36.7h-30.4
		C314.6,391.5,307.4,374.1,300.4,352z"/>
</g>
</svg>
