<?xml version="1.0" encoding="utf-8"?>
<!-- Generator: Adobe Illustrator 20.0.0, SVG Export Plug-In . SVG Version: 6.00 Build 0)  -->
<svg version="1.1" id="Layer_1" xmlns="http://www.w3.org/2000/svg" xmlns:xlink="http://www.w3.org/1999/xlink" x="0px" y="0px"
	 viewBox="0 0 512 512" style="enable-background:new 0 0 512 512;" xml:space="preserve">
<style type="text/css">
	.st0{fill:none;stroke:#002244;stroke-width:10;stroke-linecap:round;stroke-linejoin:round;stroke-miterlimit:10;}
</style>
<g>
	<path class="st0" d="M160.1,421c-26.9,0-48.8-21.8-48.8-48.8V75.3c0-26.9,21.8-48.8,48.8-48.8h12.6c26.9,0,48.8,21.8,48.8,48.8
		v296.9c0,26.9-21.8,48.8-48.8,48.8H160.1z"/>
	<path class="st0" d="M430.6,85.8H251.4c-4.3,0-7.7,3.5-7.7,7.7v280.2c0,38.4-31.1,69.5-69.5,69.5h-15.5
		c-38.4,0-69.5-31.1-69.5-69.5V93.5c0-4.3-3.5-7.7-7.7-7.7c-36.1,0-65.4,29.3-65.4,65.4V420c0,36.1,29.3,65.4,65.4,65.4h349.2
		c36.1,0,65.4-29.3,65.4-65.4V151.2C496,115.1,466.7,85.8,430.6,85.8z M321.4,329.9c0,4.3-3.5,7.7-7.7,7.7H289
		c-4.3,0-7.7-3.5-7.7-7.7v-24.7c0-4.3,3.5-7.7,7.7-7.7h24.7c4.3,0,7.7,3.5,7.7,7.7L321.4,329.9L321.4,329.9z M321.4,268.6
		c0,4.3-3.5,7.7-7.7,7.7H289c-4.3,0-7.7-3.5-7.7-7.7v-24.7c0-4.3,3.5-7.7,7.7-7.7h24.7c4.3,0,7.7,3.5,7.7,7.7L321.4,268.6
		L321.4,268.6z M321.4,207.3c0,4.3-3.5,7.7-7.7,7.7H289c-4.3,0-7.7-3.5-7.7-7.7v-24.7c0-4.3,3.5-7.7,7.7-7.7h24.7
		c4.3,0,7.7,3.5,7.7,7.7L321.4,207.3L321.4,207.3z M388.4,329.9c0,4.3-3.5,7.7-7.7,7.7H356c-4.3,0-7.7-3.5-7.7-7.7v-24.7
		c0-4.3,3.5-7.7,7.7-7.7h24.7c4.3,0,7.7,3.5,7.7,7.7V329.9z M388.4,268.6c0,4.3-3.5,7.7-7.7,7.7H356c-4.3,0-7.7-3.5-7.7-7.7v-24.7
		c0-4.3,3.5-7.7,7.7-7.7h24.7c4.3,0,7.7,3.5,7.7,7.7V268.6z M388.4,207.3c0,4.3-3.5,7.7-7.7,7.7H356c-4.3,0-7.7-3.5-7.7-7.7v-24.7
		c0-4.3,3.5-7.7,7.7-7.7h24.7c4.3,0,7.7,3.5,7.7,7.7V207.3z M455.3,329.9c0,4.3-3.5,7.7-7.7,7.7h-24.7c-4.3,0-7.7-3.5-7.7-7.7v-24.7
		c0-4.3,3.5-7.7,7.7-7.7h24.7c4.3,0,7.7,3.5,7.7,7.7V329.9z M455.3,268.6c0,4.3-3.5,7.7-7.7,7.7h-24.7c-4.3,0-7.7-3.5-7.7-7.7v-24.7
		c0-4.3,3.5-7.7,7.7-7.7h24.7c4.3,0,7.7,3.5,7.7,7.7V268.6z M455.3,207.3c0,4.3-3.5,7.7-7.7,7.7h-24.7c-4.3,0-7.7-3.5-7.7-7.7v-24.7
		c0-4.3,3.5-7.7,7.7-7.7h24.7c4.3,0,7.7,3.5,7.7,7.7V207.3z"/>
</g>
</svg>
