<?xml version="1.0" encoding="utf-8"?>
<!-- Generator: Adobe Illustrator 20.0.0, SVG Export Plug-In . SVG Version: 6.00 Build 0)  -->
<svg version="1.1" id="Capa_1" xmlns="http://www.w3.org/2000/svg" xmlns:xlink="http://www.w3.org/1999/xlink" x="0px" y="0px"
	 viewBox="0 0 512 512" style="enable-background:new 0 0 512 512;" xml:space="preserve">
<style type="text/css">
	.st0{fill:#002244;}
	.st1{fill:none;stroke:#002244;stroke-width:12.5436;stroke-miterlimit:10;}
	.st2{fill:none;stroke:#002244;stroke-width:11;stroke-miterlimit:10;}
</style>
<g>
	<path class="st0" d="M171.4,209.3c-15.8,0-28.6,12.8-28.6,28.6c0,15.8,12.8,28.6,28.6,28.6c15.8,0,28.6-12.8,28.6-28.6
		C200,222.1,187.2,209.3,171.4,209.3z M171.4,253.1c-8.3,0-15.1-6.8-15.1-15.1s6.8-15.1,15.1-15.1c8.3,0,15.1,6.7,15.1,15.1
		C186.5,246.3,179.7,253.1,171.4,253.1z"/>
	<path class="st0" d="M238.4,231h-8.7c-1.2-10.4-5.1-20.1-11.1-28.1l7.5-7.5c2.6-2.6,2.6-6.9,0-9.5c-2.6-2.6-6.9-2.6-9.5,0l-7.2,7.2
		c-8.6-7.4-19.4-12.2-31.2-13.6v-8.7c0-3.8-3-6.8-6.8-6.8c-3.8,0-6.8,3.1-6.8,6.8v8.7c-11.4,1.3-21.8,5.8-30.2,12.7l-6.4-6.4
		c-2.6-2.6-6.9-2.6-9.5,0c-2.6,2.6-2.6,6.9,0,9.5l6.5,6.5c-6.4,8.3-10.7,18.4-11.9,29.3h-8.7c-3.8,0-6.8,3-6.8,6.8s3.1,6.8,6.8,6.8
		h8.7c1.2,10.4,5.2,20.1,11.2,28.1l-7.6,7.6c-2.6,2.7-2.6,7,0,9.6c2.6,2.6,6.9,2.6,9.5,0l7.3-7.3c8.6,7.3,19.3,12.1,31.1,13.5v8.9
		c0,3.8,3.1,6.8,6.8,6.8s6.8-3.1,6.8-6.9v-8.9c11.6-1.3,22.2-6,30.7-13.1l7,7c2.6,2.6,6.9,2.6,9.5,0c2.6-2.6,2.6-6.9,0-9.5l-7.2-7.2
		c6.2-8.2,10.3-18,11.5-28.7h8.7c3.8,0,6.8-3.1,6.8-6.8C245.2,234,242.1,231,238.4,231z M171.4,283.1c-24.9,0-45.2-20.3-45.2-45.2
		c0-24.9,20.3-45.2,45.2-45.2c24.9,0,45.2,20.3,45.2,45.2C216.6,262.8,196.3,283.1,171.4,283.1z"/>
	<path class="st0" d="M466.7,40.7H45.2C20.3,40.7,0,61,0,86v303.9c0,24,18.7,43.6,42.3,45.1l13.5,0.2h49.9l13.5-0.1h273.5l13.6,0.1
		h49.9l13.5-0.2c23.6-1.5,42.3-21.1,42.3-45.1V86C512,61,491.7,40.7,466.7,40.7z M498.4,389.9c0,17.5-14.2,31.7-31.7,31.7H45.2
		c-17.5,0-31.7-14.2-31.7-31.7V86c0-17.5,14.2-31.7,31.7-31.7h421.5c17.5,0,31.7,14.2,31.7,31.7V389.9z"/>
	<path class="st0" d="M438.9,79.9H73.2c-17,0-30.8,13.8-30.8,30.8v254.5c0,17,13.8,30.8,30.8,30.8h365.6c17,0,30.9-13.8,30.9-30.8
		V110.7C469.7,93.7,455.9,79.9,438.9,79.9z M456.2,365.2c0,9.5-7.7,17.3-17.3,17.3H73.2c-9.5,0-17.3-7.7-17.3-17.3V110.7
		c0-9.5,7.7-17.3,17.3-17.3c0,0,365.7,0,365.7,0c9.5,0,17.3,7.7,17.3,17.3V365.2z"/>
	<path class="st1" d="M112.3,463.3H66.5c-6.5,0-11.8-5.3-11.8-11.8v-10.4c0-6.5,5.3-11.8,11.8-11.8h45.8c6.5,0,11.8,5.3,11.8,11.8
		v10.4C124.1,458,118.8,463.3,112.3,463.3z"/>
	<path class="st1" d="M457.9,463.3H412c-6.5,0-11.8-5.3-11.8-11.8v-10.4c0-6.5,5.3-11.8,11.8-11.8h45.8c6.5,0,11.8,5.3,11.8,11.8
		v10.4C469.7,458,464.4,463.3,457.9,463.3z"/>
	<path class="st2" d="M412.7,228.7H303.3c-6.6,0-12-5.4-12-12V214c0-6.6,5.4-12,12-12h109.3c6.6,0,12,5.4,12,12v2.7
		C424.7,223.3,419.3,228.7,412.7,228.7z"/>
</g>
</svg>
