<?xml version="1.0" encoding="utf-8"?>
<!-- Generator: Adobe Illustrator 20.0.0, SVG Export Plug-In . SVG Version: 6.00 Build 0)  -->
<svg version="1.1" id="Capa_1" xmlns="http://www.w3.org/2000/svg" xmlns:xlink="http://www.w3.org/1999/xlink" x="0px" y="0px"
	 viewBox="0 0 512 512" style="enable-background:new 0 0 512 512;" xml:space="preserve">
<style type="text/css">
	.st0{fill:#002244;}
</style>
<g>
	<path class="st0" d="M439.1,121.6C438.7,57.9,392,3.3,326.7,0.1c-40.4-1.9-79.6,18-102.4,51.2c-20,29.2-20.4,60.9-20.4,94.8
		c0,0.6,0.1,1.1,0.2,1.6c-76.5,6.4-125.2,89.1-127.3,92.7c-4.8,8.3-5.3,16.9-1.4,23.6c0.2,0.4,0.5,0.6,0.8,0.9
		c0,25.5-0.5,55,32.6,57.4c16.9,1.2,34.4,0,51.3,0c51.8,0,104,2.2,155.8,0c34-1.5,34.4-30.4,34.4-56.7c0.4-0.6,1-1.1,1.3-1.7
		c3.9-6.8,3.4-15.4-1.4-23.6c-2.1-3.7-50.8-86.3-127.3-92.7c0.1-0.5,0.2-1.1,0.2-1.6c0-28.5-0.8-55.8,15.1-81.1
		c21.3-33.7,62.1-51.7,101.3-44.4c37.8,7.1,68.8,36.5,77.8,73.9c3,12.4,2.7,24.7,2.7,37.3c0,92.9,0,185.9,0,278.8
		c0,30.7,0,61.3,0,92c0,12.3,19.1,12.3,19.1,0c0-88.5,0-177,0-265.5C439.1,198.7,439.4,160.1,439.1,121.6z M317.6,303.4
		c-5,0.9-11,0-16.1,0c-29.4,0-58.9,0-88.3,0s-58.9,0-88.3,0c-5,0-11.1,0.9-16.1,0c-14-2.6-14.5-16.3-13.9-28.8
		c0.6,0,1.1,0.2,1.7,0.2h233.9c0.4,0,0.7-0.1,1.1-0.1C332,287.2,331.5,300.9,317.6,303.4z M333.6,250.2c1.6,2.7,1.5,4.2,1.4,4.5
		c-0.2,0.2-1.4,1.1-4.6,1.1H96.5c-3.1,0-4.4-0.8-4.5-1c-0.1-0.2-0.2-1.8,1.4-4.5c0.5-0.8,49.2-83.6,120.1-83.6
		C284.2,166.5,333.1,249.3,333.6,250.2z"/>
	<path class="st0" d="M128.9,358.5c0,8.1,0,16.2,0,24.3c0,12.3,19.1,12.3,19.1,0c0-8.1,0-16.2,0-24.3
		C148.1,346.1,128.9,346.1,128.9,358.5z"/>
	<path class="st0" d="M128.9,426.2c0,8.1,0,16.2,0,24.3c0,12.3,19.1,12.3,19.1,0c0-8.1,0-16.2,0-24.3
		C148.1,413.9,128.9,413.9,128.9,426.2z"/>
	<path class="st0" d="M204,358.5c0,8.1,0,16.2,0,24.3c0,12.3,19.1,12.3,19.1,0c0-8.1,0-16.2,0-24.3C223.1,346.1,204,346.1,204,358.5
		z"/>
	<path class="st0" d="M204,426.2c0,8.1,0,16.2,0,24.3c0,12.3,19.1,12.3,19.1,0c0-8.1,0-16.2,0-24.3C223.1,413.9,204,413.9,204,426.2
		z"/>
	<path class="st0" d="M279.2,358.5c0,8.1,0,16.2,0,24.3c0,12.3,19.1,12.3,19.1,0c0-8.1,0-16.2,0-24.3
		C298.3,346.1,279.2,346.1,279.2,358.5z"/>
	<path class="st0" d="M279.2,426.2c0,8.1,0,16.2,0,24.3c0,12.3,19.1,12.3,19.1,0c0-8.1,0-16.2,0-24.3
		C298.3,413.9,279.2,413.9,279.2,426.2z"/>
</g>
</svg>
