<?xml version="1.0" encoding="utf-8"?>
<!-- Generator: Adobe Illustrator 20.0.0, SVG Export Plug-In . SVG Version: 6.00 Build 0)  -->
<svg version="1.1" id="Layer_1" xmlns="http://www.w3.org/2000/svg" xmlns:xlink="http://www.w3.org/1999/xlink" x="0px" y="0px"
	 viewBox="0 0 128 128" style="enable-background:new 0 0 128 128;" xml:space="preserve">
<style type="text/css">
	.st0{fill:#002244;}
</style>
<g id="Layer_1_1_">
</g>
<g id="refrigerator">
</g>
<g id="washer">
</g>
<g>
	<path class="st0" d="M116,86H12c-3.3,0-6-2.7-6-6V26c0-3.3,2.7-6,6-6h104c3.3,0,6,2.7,6,6v54C122,83.3,119.3,86,116,86z M12,24
		c-1.1,0-2,0.9-2,2v54c0,1.1,0.9,2,2,2h104c1.1,0,2-0.9,2-2V26c0-1.1-0.9-2-2-2H12z"/>
</g>
<g>
	<path class="st0" d="M78,110.5H50c-1.1,0-2-1.3-2-2.9s0.9-2.9,2-2.9h28c1.1,0,2,1.3,2,2.9S79.1,110.5,78,110.5z"/>
</g>
<g>
	<polygon class="st0" points="70,107 66,107 66,86 62,86 62,107 58,107 58,82 70,82 	"/>
</g>
<g id="microwawe">
</g>
<g id="vacuum_cleaner">
</g>
<g id="Gift">
</g>
<g id="umbrella">
</g>
<g id="rocket">
</g>
<g id="basket">
</g>
<g id="shopping">
</g>
<g id="email">
</g>
<g id="message">
</g>
<g id="delivery">
</g>
<g id="store">
</g>
<g id="label">
</g>
<g id="phone">
</g>
<g id="imac">
</g>
<g id="laptop">
</g>
<g id="heart_like">
</g>
<g id="game">
</g>
<g id="wallet">
</g>
<g id="camera">
</g>
<g id="battery">
</g>
<g id="shoes">
</g>
<g id="t-shirt">
</g>
<g id="pencil">
</g>
<g id="people">
</g>
<g id="statistics">
</g>
<g id="blog">
</g>
<g id="rock">
</g>
<g id="like">
</g>
<g id="dislike">
</g>
<g id="speaker">
</g>
<g id="pc">
</g>
<g id="glasses">
</g>
<g id="headphones">
</g>
<g id="player">
</g>
<g id="book">
</g>
<g id="transfer">
</g>
<g id="mouse">
</g>
<g id="package">
</g>
<g id="exellent">
</g>
<g id="card">
</g>
<g id="induction">
</g>
<g id="revers_camera">
</g>
<g id="flesh_drive">
</g>
<g id="time">
</g>
<g id="sale">
</g>
<g id="tablet">
</g>
<g id="search">
</g>
</svg>
