<svg id="Layer_1" xmlns="http://www.w3.org/2000/svg" viewBox="0 0 512 512"><style>.st0{fill:none;stroke:#024;stroke-width:10;stroke-linecap:round;stroke-linejoin:round;stroke-miterlimit:10}</style><path class="st0" d="M160.1 421c-26.9 0-48.8-21.8-48.8-48.8V75.3c0-26.9 21.8-48.8 48.8-48.8h12.6c26.9 0 48.8 21.8 48.8 48.8v296.9c0 26.9-21.8 48.8-48.8 48.8h-12.6z"/><path class="st0" d="M430.6 85.8H251.4c-4.3 0-7.7 3.5-7.7 7.7v280.2c0 38.4-31.1 69.5-69.5 69.5h-15.5c-38.4 0-69.5-31.1-69.5-69.5V93.5c0-4.3-3.5-7.7-7.7-7.7-36.1 0-65.4 29.3-65.4 65.4V420c0 36.1 29.3 65.4 65.4 65.4h349.2c36.1 0 65.4-29.3 65.4-65.4V151.2c-.1-36.1-29.4-65.4-65.5-65.4zM321.4 329.9c0 4.3-3.5 7.7-7.7 7.7H289c-4.3 0-7.7-3.5-7.7-7.7v-24.7c0-4.3 3.5-7.7 7.7-7.7h24.7c4.3 0 7.7 3.5 7.7 7.7v24.7zm0-61.3c0 4.3-3.5 7.7-7.7 7.7H289c-4.3 0-7.7-3.5-7.7-7.7v-24.7c0-4.3 3.5-7.7 7.7-7.7h24.7c4.3 0 7.7 3.5 7.7 7.7v24.7zm0-61.3c0 4.3-3.5 7.7-7.7 7.7H289c-4.3 0-7.7-3.5-7.7-7.7v-24.7c0-4.3 3.5-7.7 7.7-7.7h24.7c4.3 0 7.7 3.5 7.7 7.7v24.7zm67 122.6c0 4.3-3.5 7.7-7.7 7.7H356c-4.3 0-7.7-3.5-7.7-7.7v-24.7c0-4.3 3.5-7.7 7.7-7.7h24.7c4.3 0 7.7 3.5 7.7 7.7v24.7zm0-61.3c0 4.3-3.5 7.7-7.7 7.7H356c-4.3 0-7.7-3.5-7.7-7.7v-24.7c0-4.3 3.5-7.7 7.7-7.7h24.7c4.3 0 7.7 3.5 7.7 7.7v24.7zm0-61.3c0 4.3-3.5 7.7-7.7 7.7H356c-4.3 0-7.7-3.5-7.7-7.7v-24.7c0-4.3 3.5-7.7 7.7-7.7h24.7c4.3 0 7.7 3.5 7.7 7.7v24.7zm66.9 122.6c0 4.3-3.5 7.7-7.7 7.7h-24.7c-4.3 0-7.7-3.5-7.7-7.7v-24.7c0-4.3 3.5-7.7 7.7-7.7h24.7c4.3 0 7.7 3.5 7.7 7.7v24.7zm0-61.3c0 4.3-3.5 7.7-7.7 7.7h-24.7c-4.3 0-7.7-3.5-7.7-7.7v-24.7c0-4.3 3.5-7.7 7.7-7.7h24.7c4.3 0 7.7 3.5 7.7 7.7v24.7zm0-61.3c0 4.3-3.5 7.7-7.7 7.7h-24.7c-4.3 0-7.7-3.5-7.7-7.7v-24.7c0-4.3 3.5-7.7 7.7-7.7h24.7c4.3 0 7.7 3.5 7.7 7.7v24.7z"/></svg>