<svg id="Capa_1" xmlns="http://www.w3.org/2000/svg" viewBox="0 0 512 512"><style>.st0{fill:#024}.st1{fill:none;stroke:#024;stroke-width:11;stroke-miterlimit:10}</style><path class="st0" d="M150.9 115.4c12.8 0 23.1-10.4 23.1-23.1 0-12.8-10.4-23.1-23.1-23.1-12.8 0-23.2 10.4-23.2 23.1s10.4 23.1 23.2 23.1zm0-33.3c5.6 0 10.2 4.6 10.2 10.2s-4.6 10.2-10.2 10.2-10.2-4.6-10.2-10.2 4.6-10.2 10.2-10.2zm0 96.4c-14.1 0-25.1 8.4-25.1 19.1v132.9c0 10.7 11 19.1 25.1 19.1s25.1-8.4 25.1-19.1v-133c-.1-10.6-11.1-19-25.1-19zM163 330.4c0 2.4-4.8 6.1-12.1 6.1s-12.1-3.7-12.1-6.1V197.5c0-2.4 4.8-6.1 12.1-6.1s12.1 3.7 12.1 6.1v132.9z"/><path class="st0" d="M399.6 0H112.4C90.2 0 72.2 18 72.2 40.2v395.4c0 22.1 18 40.2 40.2 40.2h4.9c-.6 1.1 18.4 0 21.7 0 3.6-.1 22.4 1.3 21.7 0h188.8c.7 0 1.3.4 2.1.5 8.1.9 53.7-1 43.2-.5h4.9c22.1 0 40.2-18 40.2-40.2V40.2C439.8 18 421.8 0 399.6 0zm27.2 435.6c0 15-12.2 27.2-27.2 27.2H112.4c-15 0-27.2-12.2-27.2-27.2V161h341.6v274.6zm.1-287.6H85.2V40.2c0-15 12.2-27.2 27.2-27.2h287.3c15 0 27.2 12.2 27.2 27.2V148z"/><path class="st1" d="M160.4 503h-38.3c-6.9 0-12.6-5.7-12.6-12.6v-6.3c0-6.9 5.7-12.6 12.6-12.6h38.3c6.9 0 12.6 5.7 12.6 12.6v6.3c0 6.9-5.7 12.6-12.6 12.6zm225.6 0h-38.3c-6.9 0-12.6-5.7-12.6-12.6v-6.3c0-6.9 5.7-12.6 12.6-12.6H386c6.9 0 12.6 5.7 12.6 12.6v6.3c0 6.9-5.7 12.6-12.6 12.6z"/></svg>