<svg id="Capa_1" xmlns="http://www.w3.org/2000/svg" viewBox="0 0 512 512"><style>.st0{fill:#024}</style><path class="st0" d="M439.1 121.6C438.7 57.9 392 3.3 326.7.1c-40.4-1.9-79.6 18-102.4 51.2-20 29.2-20.4 60.9-20.4 94.8 0 .6.1 1.1.2 1.6-76.5 6.4-125.2 89.1-127.3 92.7-4.8 8.3-5.3 16.9-1.4 23.6.2.4.5.6.8.9 0 25.5-.5 55 32.6 57.4 16.9 1.2 34.4 0 51.3 0 51.8 0 104 2.2 155.8 0 34-1.5 34.4-30.4 34.4-56.7.4-.6 1-1.1 1.3-1.7 3.9-6.8 3.4-15.4-1.4-23.6-2.1-3.7-50.8-86.3-127.3-92.7.1-.5.2-1.1.2-1.6 0-28.5-.8-55.8 15.1-81.1 21.3-33.7 62.1-51.7 101.3-44.4 37.8 7.1 68.8 36.5 77.8 73.9 3 12.4 2.7 24.7 2.7 37.3v370.8c0 12.3 19.1 12.3 19.1 0V237c0-38.3.3-76.9 0-115.4zM317.6 303.4c-5 .9-11 0-16.1 0H124.9c-5 0-11.1.9-16.1 0-14-2.6-14.5-16.3-13.9-28.8.6 0 1.1.2 1.7.2h233.9c.4 0 .7-.1 1.1-.1.4 12.5-.1 26.2-14 28.7zm16-53.2c1.6 2.7 1.5 4.2 1.4 4.5-.2.2-1.4 1.1-4.6 1.1H96.5c-3.1 0-4.4-.8-4.5-1-.1-.2-.2-1.8 1.4-4.5.5-.8 49.2-83.6 120.1-83.6 70.7-.2 119.6 82.6 120.1 83.5z"/><path class="st0" d="M128.9 358.5v24.3c0 12.3 19.1 12.3 19.1 0v-24.3c.1-12.4-19.1-12.4-19.1 0zm0 67.7v24.3c0 12.3 19.1 12.3 19.1 0v-24.3c.1-12.3-19.1-12.3-19.1 0zm75.1-67.7v24.3c0 12.3 19.1 12.3 19.1 0v-24.3c0-12.4-19.1-12.4-19.1 0zm0 67.7v24.3c0 12.3 19.1 12.3 19.1 0v-24.3c0-12.3-19.1-12.3-19.1 0zm75.2-67.7v24.3c0 12.3 19.1 12.3 19.1 0v-24.3c0-12.4-19.1-12.4-19.1 0zm0 67.7v24.3c0 12.3 19.1 12.3 19.1 0v-24.3c0-12.3-19.1-12.3-19.1 0z"/></svg>