<svg id="Layer_1" xmlns="http://www.w3.org/2000/svg" viewBox="0 0 128 128"><style>.st0{fill:#024}</style><path class="st0" d="M84.5 81.4c-.6 0-1.1-.2-1.5-.7-4.8-5.8-11.8-9.1-19.2-9.1-7.2 0-14.1 3.1-18.8 8.6-.7.8-2 .9-2.8.2-.8-.7-.9-2-.2-2.8 5.5-6.3 13.5-10 21.8-10 8.7 0 16.8 3.8 22.3 10.5.7.9.6 2.1-.3 2.8-.4.4-.8.5-1.3.5zm14.3-16.7c-.5 0-1.1-.2-1.5-.7-8.5-9.5-20.8-15-33.5-15-12.5 0-24.6 5.3-33.1 14.5-.7.8-2 .9-2.8.1-.8-.7-.9-2-.1-2.8 9.3-10 22.4-15.8 36-15.8 13.9 0 27.2 6 36.5 16.3.7.8.7 2.1-.2 2.8-.4.4-.8.6-1.3.6z"/><path class="st0" d="M112 49c-.5 0-1.1-.2-1.5-.6-12-13-29.1-20.5-46.8-20.5-17.7 0-34.2 7.1-46.4 20-.8.8-2 .8-2.8.1-.8-.8-.8-2-.1-2.8 12.9-13.7 30.4-21.3 49.3-21.3 18.8 0 37 7.9 49.8 21.8.8.8.7 2.1-.1 2.8-.4.3-.9.5-1.4.5zm-48 54.2c-4.6 0-8.4-3.8-8.4-8.4 0-4.6 3.7-8.4 8.4-8.4s8.4 3.7 8.4 8.4c-.1 4.7-3.8 8.4-8.4 8.4zm0-12.7c-2.4 0-4.4 2-4.4 4.4 0 2.4 2 4.4 4.4 4.4s4.4-2 4.4-4.4c-.1-2.5-2-4.4-4.4-4.4z"/></svg>